{
  "accessors": [
    {
      "bufferView": 2,
      "componentType": 5126,
      "count": 8567,
      "max": [
        1.9943513870239258,
        0.4969453513622284,
        1.9943522214889526
      ],
      "min": [
        -1.9943525791168213,
        -3.6917941570281982,
        -1.994352102279663
      ],
      "type": "VEC3"
    },
    {
      "bufferView": 2,
      "byteOffset": 102804,
      "componentType": 5126,
      "count": 8567,
      "max": [
        0.99992436170578,
        0.9999995231628418,
        0.999958336353302
      ],
      "min": [
        -0.999355673789978,
        -1.0,
        -0.9999241232872009
      ],
      "type": "VEC3"
    },
    {
      "bufferView": 1,
      "componentType": 5126,
      "count": 8567,
      "max": [
        0.9900001883506775,
        0.4900001287460327
      ],
      "min": [
        0.5099999904632568,
        0.01000000536441803
      ],
      "type": "VEC2"
    },
    {
      "bufferView": 0,
      "componentType": 5125,
      "count": 31104,
      "type": "SCALAR"
    },
    {
      "bufferView": 2,
      "byteOffset": 205608,
      "componentType": 5126,
      "count": 2431,
      "max": [
        0.3635188341140747,
        -3.374645709991455,
        0.36351925134658813
      ],
      "min": [
        -0.363519549369812,
        -4.788420677185059,
        -0.36351922154426575
      ],
      "type": "VEC3"
    },
    {
      "bufferView": 2,
      "byteOffset": 234780,
      "componentType": 5126,
      "count": 2431,
      "max": [
        0.9990853667259216,
        1.0,
        0.9990853667259216
      ],
      "min": [
        -0.9990854859352112,
        -0.07932476699352264,
        -0.9990854859352112
      ],
      "type": "VEC3"
    },
    {
      "bufferView": 1,
      "byteOffset": 68536,
      "componentType": 5126,
      "count": 2431,
      "max": [
        0.9900001287460327,
        0.49000006914138794
      ],
      "min": [
        0.5100000500679016,
        0.01000000536441803
      ],
      "type": "VEC2"
    },
    {
      "bufferView": 0,
      "byteOffset": 124416,
      "componentType": 5125,
      "count": 9600,
      "type": "SCALAR"
    },
    {
      "bufferView": 2,
      "byteOffset": 263952,
      "componentType": 5126,
      "count": 3966,
      "max": [
        2.0345754623413086,
        0.48759639263153076,
        1.986563801765442
      ],
      "min": [
        -2.076366901397705,
        -3.8267221450805664,
        -2.041022539138794
      ],
      "type": "VEC3"
    },
    {
      "bufferView": 2,
      "byteOffset": 311544,
      "componentType": 5126,
      "count": 3966,
      "max": [
        0.996807336807251,
        0.9987112283706665,
        0.9968302249908447
      ],
      "min": [
        -0.9976069331169128,
        -0.9998805522918701,
        -0.9987598657608032
      ],
      "type": "VEC3"
    },
    {
      "bufferView": 1,
      "byteOffset": 87984,
      "componentType": 5126,
      "count": 3966,
      "max": [
        0.9900001287460327,
        0.49000006914138794
      ],
      "min": [
        0.0,
        0.0
      ],
      "type": "VEC2"
    },
    {
      "bufferView": 0,
      "byteOffset": 162816,
      "componentType": 5125,
      "count": 18048,
      "type": "SCALAR"
    }
  ],
  "asset": {
    "extras": {
      "author": "Brian Seoane (https://sketchfab.com/dgrafi.seoane)",
      "license": "CC-BY-4.0 (http://creativecommons.org/licenses/by/4.0/)",
      "source": "https://sketchfab.com/3d-models/christmas-tree-7869dd72aa6f4db0a8416f2d630370ed",
      "title": "Christmas tree"
    },
    "generator": "Sketchfab-14.69.0",
    "version": "2.0"
  },
  "bufferViews": [
    {
      "buffer": 0,
      "byteLength": 235008,
      "name": "floatBufferViews",
      "target": 34963
    },
    {
      "buffer": 0,
      "byteLength": 119712,
      "byteOffset": 235008,
      "byteStride": 8,
      "name": "floatBufferViews",
      "target": 34962
    },
    {
      "buffer": 0,
      "byteLength": 359136,
      "byteOffset": 354720,
      "byteStride": 12,
      "name": "floatBufferViews",
      "target": 34962
    }
  ],
  "buffers": [
    {
      "byteLength": 713856,
      "uri": "scene.bin"
    }
  ],
  "extensionsUsed": [
    "KHR_materials_specular"
  ],
  "materials": [
    {
      "doubleSided": true,
      "name": "VerdeArbol",
      "pbrMetallicRoughness": {
        "baseColorFactor": [
          0.00928825,
          0.363055,
          0.00922616,
          1.0
        ],
        "metallicFactor": 0.0,
        "roughnessFactor": 0.5
      }
    },
    {
      "doubleSided": true,
      "extensions": {
        "KHR_materials_specular": {
          "specularColorFactor": [
            1.0,
            1.0,
            1.0
          ],
          "specularFactor": 0.8883836598359156
        }
      },
      "name": "CafeArbol",
      "pbrMetallicRoughness": {
        "baseColorFactor": [
          0.0999554,
          0.0450563,
          0.0420075,
          1.0
        ],
        "metallicFactor": 0.0,
        "roughnessFactor": 0.4739062061903426
      }
    },
    {
      "doubleSided": true,
      "name": "Nieve",
      "pbrMetallicRoughness": {
        "baseColorFactor": [
          0.750635,
          0.774596,
          0.849127,
          1.0
        ],
        "metallicFactor": 0.0,
        "roughnessFactor": 0.613636
      }
    }
  ],
  "meshes": [
    {
      "name": "Object_0",
      "primitives": [
        {
          "attributes": {
            "NORMAL": 1,
            "POSITION": 0,
            "TEXCOORD_0": 2
          },
          "indices": 3,
          "material": 0,
          "mode": 4
        }
      ]
    },
    {
      "name": "Object_1",
      "primitives": [
        {
          "attributes": {
            "NORMAL": 5,
            "POSITION": 4,
            "TEXCOORD_0": 6
          },
          "indices": 7,
          "material": 1,
          "mode": 4
        }
      ]
    },
    {
      "name": "Object_2",
      "primitives": [
        {
          "attributes": {
            "NORMAL": 9,
            "POSITION": 8,
            "TEXCOORD_0": 10
          },
          "indices": 11,
          "material": 2,
          "mode": 4
        }
      ]
    }
  ],
  "nodes": [
    {
      "children": [
        1
      ],
      "matrix": [
        0.11193998157978058,
        0.0,
        0.0,
        0.0,
        0.0,
        2.485566898519766e-17,
        -0.11193998157978058,
        0.0,
        0.0,
        0.11193998157978058,
        2.485566898519766e-17,
        0.0,
        0.0,
        0.0,
        0.0,
        1.0
      ],
      "name": "Sketchfab_model"
    },
    {
      "children": [
        2
      ],
      "name": "root"
    },
    {
      "children": [
        3
      ],
      "matrix": [
        1.0,
        0.0,
        0.0,
        0.0,
        0.0,
        2.220446049250313e-16,
        1.0,
        0.0,
        0.0,
        -1.0,
        2.220446049250313e-16,
        0.0,
        0.0,
        0.0,
        0.0,
        1.0
      ],
      "name": "GLTF_SceneRootNode"
    },
    {
      "children": [
        4,
        5,
        6
      ],
      "matrix": [
        3.246636390686035,
        0.0,
        0.0,
        0.0,
        0.0,
        3.246636390686035,
        0.0,
        0.0,
        0.0,
        0.0,
        3.246636390686035,
        0.0,
        0.0265960693359375,
        15.608987808227539,
        0.0,
        1.0
      ],
      "name": "Arbol_0"
    },
    {
      "mesh": 0,
      "name": "Object_4"
    },
    {
      "mesh": 1,
      "name": "Object_5"
    },
    {
      "mesh": 2,
      "name": "Object_6"
    }
  ],
  "scene": 0,
  "scenes": [
    {
      "name": "Sketchfab_Scene",
      "nodes": [
        0
      ]
    }
  ]
}
